#!OML:ASF H:\Male1\Project 1\Capture day 1\Session 1\Male1.ASF
:FULLY-SPECIFIED
:DEGREES
194
root 11.8635 18.9902 -0.56698 -183.871 -125.958 -179.897
lowerback 11.4051 3.96392 5.10115
upperback 3.06908 5.72835 -1.28988
thorax -2.51387 2.82471 -4.94177
lowerneck -2.87212 13.3118 12.4653
upperneck -4.3171 17.47 -20.4761
head 2.23024 8.6084 -7.30417
rclavicle -9.10527e-014 1.44492e-014
rhumerus -38.7489 5.76987 -72.2674
rradius 82.382
rwrist -27.3088
rhand -28.4983 0.417647
rfingers 7.12502
rthumb -1.86719 -29.5539
lclavicle -9.10527e-014 1.44492e-014
lhumerus -52.4915 -11.3661 53.2337
lradius 74.1492
lwrist 13.9119
lhand -41.3799 18.0489
lfingers 7.12502
lthumb -14.2977 47.5366
rfemur -11.2915 -4.62901 23.5476
rtibia 41.5364
rfoot -25.6318 -38.2378
rtoes 8.16452
lfemur -9.67201 -19.8629 -24.503
ltibia 29.915
lfoot 6.56252 -1.91037
ltoes -29.2891
195
root 11.7806 19.2965 -0.673645 -183.594 -133.787 -180.399
lowerback 12.1067 3.44586 4.58267
upperback 3.65877 4.98772 -1.44845
thorax -2.39829 2.46984 -4.76164
lowerneck -3.38423 13.0298 12.4672
upperneck -4.13394 17.0809 -20.8394
head 2.34564 8.39001 -7.41853
rclavicle 6.30644e-014 1.88845e-015
rhumerus -41.1702 4.39676 -71.857
rradius 79.9801
rwrist -27.848
rhand -28.9444 -0.422888
rfingers 7.12502
rthumb -2.29798 -30.3903
lclavicle 6.30644e-014 1.88845e-015
lhumerus -49.9505 -9.90468 52.1909
lradius 72.8047
lwrist 13.606
lhand -40.6455 17.9597
lfingers 7.12502
lthumb -13.5899 47.4961
rfemur -13.0869 -5.01776 22.8555
rtibia 41.8416
rfoot -24.0351 -38.609
rtoes 10.6276
lfemur -9.15862 -19.3774 -23.9569
ltibia 29.9922
lfoot 8.90953 -2.89671
ltoes -29.6448
196
root 11.6816 19.5773 -0.775331 -183.068 -140.871 -180.923
lowerback 12.9017 3.16407 4.24153
upperback 4.01657 4.58753 -1.68921
thorax -2.50736 2.2742 -4.81681
lowerneck -3.52017 12.76 12.6938
upperneck -4.09587 16.703 -20.7342
head 2.32597 8.2026 -7.45501
rclavicle -1.70955e-014 -1.39149e-014
rhumerus -43.6581 3.1513 -71.6206
rradius 77.3409
rwrist -27.5052
rhand -29.1249 -0.212861
rfingers 7.12502
rthumb -2.47229 -30.1783
lclavicle -1.70955e-014 -1.39149e-014
lhumerus -48.3616 -9.60979 51.7609
lradius 71.7614
lwrist 14.6573
lhand -41.4825 18.8731
lfingers 7.12502
lthumb -14.3965 48.3538
rfemur -14.7835 -3.87027 22.2468
rtibia 41.7377
rfoot -18.5889 -36.561
rtoes 1.38943
lfemur -8.93275 -18.0808 -22.8946
ltibia 29.7349
lfoot 9.63223 -3.23568
ltoes -26.4214
197
root 11.5675 19.8021 -0.864251 -182.66 -148.063 -181.769
lowerback 13.999 2.61556 4.63672
upperback 4.50486 3.9377 -1.94876
thorax -2.60977 1.96035 -5.28007
lowerneck -2.0434 12.4041 13.4689
upperneck -6.22197 16.0661 -22.0608
head 1.57348 8.04065 -8.21464
rclavicle -9.44227e-015 3.06128e-014
rhumerus -45.9856 1.88397 -71.8761
rradius 74.8509
rwrist -26.6671
rhand -29.6473 0.482831
rfingers 7.12502
rthumb -2.97689 -29.4761
lclavicle -9.44227e-015 3.06128e-014
lhumerus -46.8417 -8.86732 50.841
lradius 70.6319
lwrist 16.1341
lhand -41.101 19.6046
lfingers 7.12502
lthumb -14.0289 49.1112
rfemur -15.7319 -2.37744 22.0563
rtibia 41.3722
rfoot -11.4942 -33.6493
rtoes -17.1514
lfemur -8.67367 -17.9597 -21.8505
ltibia 29.3816
lfoot 7.82487 -2.63
ltoes -26.1593
198
root 11.4371 20.0015 -0.913196 -181.792 -154.274 -182.153
lowerback 13.818 2.36761 4.68976
upperback 5.00806 3.59908 -2.26148
thorax -1.99733 1.83007 -5.56213
lowerneck -1.70272 12.2155 13.479
upperneck -7.11546 15.7188 -22.1094
head 1.2082 7.92647 -8.32309
rclavicle -2.0276e-014 9.54166e-015
rhumerus -48.04 0.47333 -72.4845
rradius 72.3581
rwrist -25.8822
rhand -30.6334 2.40918
rfingers 7.12502
rthumb -3.92918 -27.5343
lclavicle -2.0276e-014 9.54166e-015
lhumerus -45.2636 -7.67548 50.1627
lradius 68.6353
lwrist 15.1604
lhand -40.429 20.438
lfingers 7.12502
lthumb -13.3813 49.9883
rfemur -17.2705 0.369792 21.7971
rtibia 41.0101
rfoot -10.1145 -30.8393
rtoes -26.8151
lfemur -9.05314 -18.053 -21.2807
ltibia 29.0326
lfoot 5.17012 -1.3984
ltoes -34.4852
199
root 11.2718 20.1405 -1.00248 -180.984 -161.252 -184.138
lowerback 14.7187 1.89683 5.51743
upperback 5.46258 3.1492 -1.71353
thorax -2.04036 1.62062 -5.42308
lowerneck -1.56644 12.0188 13.5631
upperneck -7.38587 15.4346 -22.4519
head 1.10162 7.81602 -8.49191
rclavicle 1.0138e-014 -1.59028e-015
rhumerus -50.4505 -0.239326 -72.6453
rradius 69.9884
rwrist -26.0463
rhand -31.5365 3.04101
rfingers 7.12502
rthumb -4.80117 -26.8846
lclavicle 1.0138e-014 -1.59028e-015
lhumerus -43.4951 -6.29153 49.9555
lradius 66.5426
lwrist 14.3706
lhand -40.0686 23.1695
lfingers 7.12502
lthumb -13.0339 52.7423
rfemur -18.3913 3.27551 23.3157
rtibia 40.9589
rfoot -17.5663 -29.8967
rtoes -2.17063
lfemur -9.2691 -16.9049 -18.9032
ltibia 28.8037
lfoot 3.03168 0.707255
ltoes -32.6593
200
root 11.1153 20.2219 -1.03881 -180.86 -168.016 -183.372
lowerback 15.0203 1.73614 4.32593
upperback 5.90062 2.78298 -1.98157
thorax -1.83939 1.44988 -4.97732
lowerneck -1.4846 11.852 15.0989
upperneck -7.1634 15.2784 -24.4688
head 1.46217 7.74628 -9.38763
rclavicle 1.78906e-014 -5.56597e-015
rhumerus -53.0752 -1.3938 -73.3085
rradius 67.5974
rwrist -25.568
rhand -31.9485 3.84345
rfingers 7.12502
rthumb -5.199 -26.0728
lclavicle 1.78906e-014 -5.56597e-015
lhumerus -41.4939 -4.78663 49.7927
lradius 64.203
lwrist 13.733
lhand -37.7306 24.2896
lfingers 7.12502
lthumb -10.7794 53.993
rfemur -19.8714 6.04272 22.2675
rtibia 41.4131
rfoot -17.3028 -31.434
rtoes -2.78004
lfemur -9.33046 -16.1638 -19.8543
ltibia 28.7297
lfoot 1.24502 4.37178
ltoes -26.7518
201
root 10.9427 20.2682 -1.08614 -180.939 -175.759 -181.945
lowerback 15.9156 0.895845 1.95714
upperback 6.57173 1.38297 -1.85824
thorax -1.84315 0.736047 -3.29462
lowerneck -0.681905 12.2416 14.2467
upperneck -8.48095 15.7007 -25.265
head 1.05378 8.1024 -9.55559
rclavicle 1.59028e-015 -1.51076e-014
rhumerus -55.3287 -0.274581 -74.2779
rradius 65.5599
rwrist -24.6542
rhand -32.0386 4.42844
rfingers 7.12502
rthumb -5.28599 -25.4856
lclavicle 1.59028e-015 -1.51076e-014
lhumerus -40.3078 -1.90932 50.7352
lradius 62.4587
lwrist 17.1959
lhand -38.0602 24.5355
lfingers 7.12502
lthumb -11.0973 54.2221
rfemur -21.2989 6.16163 20.8953
rtibia 42.1224
rfoot -8.10259 -34.0544
rtoes -20.4744
lfemur -9.17 -14.5952 -21.6201
ltibia 28.8954
lfoot -0.23563 7.58881
ltoes -18.8951
202
root 10.7335 20.2657 -1.11554 -180.864 -183.59 -181.305
lowerback 16.9549 0.246314 0.875518
upperback 7.37594 0.410731 -1.91514
thorax -1.61656 0.258571 -2.58384
lowerneck 0.140141 12.1072 13.4904
upperneck -9.82958 15.3622 -25.6608
head 0.447559 8.08807 -9.71407
rclavicle -7.55382e-015 -1.27222e-014
rhumerus -57.8595 -0.342005 -76.4858
rradius 63.3794
rwrist -23.7519
rhand -32.3871 5.11451
rfingers 7.12502
rthumb -5.62244 -24.7909
lclavicle -7.55382e-015 -1.27222e-014
lhumerus -37.7899 -1.40647 52.3644
lradius 61.0198
lwrist 18.1779
lhand -39.7851 24.7845
lfingers 7.12502
lthumb -12.7606 54.3745
rfemur -22.4885 8.1619 20.0455
rtibia 42.5113
rfoot -7.37765 -31.9897
rtoes -10.5493
lfemur -9.04257 -10.8594 -22.599
ltibia 29.1723
lfoot 0.527588 8.42927
ltoes -25.6823
203
root 10.5153 20.2214 -1.11509 -180.725 -191.601 -180.664
lowerback 18.0959 -0.517475 -0.195604
upperback 8.25115 -0.70264 -1.94178
thorax -1.32235 -0.29108 -1.80503
lowerneck 0.3666 12.1282 14.8091
upperneck -10.2827 15.3826 -27.5065
head 0.607636 8.16699 -10.5628
rclavicle -1.66979e-014 -2.78299e-014
rhumerus -60.052 0.224856 -79.7411
rradius 61.1222
rwrist -24.2693
rhand -32.6807 4.93487
rfingers 7.12502
rthumb -5.9059 -24.9628
lclavicle -1.66979e-014 -2.78299e-014
lhumerus -33.7381 -0.134264 53.798
lradius 58.4226
lwrist 17.2141
lhand -38.0702 22.3318
lfingers 7.12502
lthumb -11.1069 52.0179
rfemur -23.5948 10.0651 19.487
rtibia 42.4742
rfoot -4.86977 -28.486
rtoes -14.6532
lfemur -8.51982 -8.83601 -23.5699
ltibia 29.2974
lfoot 0.549725 9.22049
ltoes -28.6229
204
root 10.2839 20.1475 -1.08028 -180.531 -199.517 -181.641
lowerback 18.5644 -1.41228 0.244811
upperback 9.14218 -1.71617 -1.50889
thorax -0.638829 -0.762869 -1.41109
lowerneck 1.00887 12.0705 15.6562
upperneck -11.4386 15.2031 -28.8913
head 0.372588 8.21383 -11.2901
rclavicle -4.37326e-015 -1.66979e-014
rhumerus -61.8981 1.11933 -83.9579
rradius 58.9112
rwrist -24.3752
rhand -32.3012 2.71951
rfingers 7.12502
rthumb -5.53951 -27.1881
lclavicle -4.37326e-015 -1.66979e-014
lhumerus -29.3854 -0.298257 55.9591
lradius 55.9668
lwrist 12.6841
lhand -36.5372 24.4625
lfingers 7.12502
lthumb -9.62814 54.2224
rfemur -25.1003 13.1319 20.3325
rtibia 41.5104
rfoot -4.1165 -25.0882
rtoes -17.2004
lfemur -8.8044 -6.32768 -22.4198
ltibia 29.7604
lfoot -1.02984 8.87186
ltoes -24.0314
